<mxfile host="app.diagrams.net" modified="2021-05-14T01:10:01.515Z" agent="5.0 (Windows NT 10.0; WOW64) AppleWebKit/537.36 (KHTML, like Gecko) Chrome/90.0.4430.212 Safari/537.36" etag="3jgPiRT3dreFbefMO5Hh" version="14.6.11" type="github">
  <diagram id="s8IMBMBum-lAIuIww4oP" name="Page-1">
    <mxGraphModel dx="1021" dy="462" grid="1" gridSize="10" guides="1" tooltips="1" connect="1" arrows="1" fold="1" page="1" pageScale="1" pageWidth="827" pageHeight="1169" math="0" shadow="0">
      <root>
        <mxCell id="0" />
        <mxCell id="1" parent="0" />
        <mxCell id="HRDqVDNPpXFTRO4hQufy-1" value="&lt;font style=&quot;font-size: 19px&quot;&gt;{i1, i3, i4}&lt;/font&gt;" style="ellipse;whiteSpace=wrap;html=1;" vertex="1" parent="1">
          <mxGeometry x="330" y="170" width="190" height="80" as="geometry" />
        </mxCell>
        <mxCell id="HRDqVDNPpXFTRO4hQufy-22" style="edgeStyle=none;rounded=0;orthogonalLoop=1;jettySize=auto;html=1;entryX=0;entryY=1;entryDx=0;entryDy=0;" edge="1" parent="1" source="HRDqVDNPpXFTRO4hQufy-2" target="HRDqVDNPpXFTRO4hQufy-1">
          <mxGeometry relative="1" as="geometry" />
        </mxCell>
        <mxCell id="HRDqVDNPpXFTRO4hQufy-2" value="&lt;font style=&quot;font-size: 19px&quot;&gt;{i1,i3}&lt;/font&gt;" style="text;html=1;strokeColor=none;fillColor=none;align=center;verticalAlign=middle;whiteSpace=wrap;rounded=0;" vertex="1" parent="1">
          <mxGeometry x="170" y="340" width="40" height="20" as="geometry" />
        </mxCell>
        <mxCell id="HRDqVDNPpXFTRO4hQufy-21" style="edgeStyle=none;rounded=0;orthogonalLoop=1;jettySize=auto;html=1;" edge="1" parent="1" source="HRDqVDNPpXFTRO4hQufy-3" target="HRDqVDNPpXFTRO4hQufy-1">
          <mxGeometry relative="1" as="geometry" />
        </mxCell>
        <mxCell id="HRDqVDNPpXFTRO4hQufy-3" value="&lt;font style=&quot;font-size: 19px&quot;&gt;{i1,i4}&lt;/font&gt;" style="text;html=1;strokeColor=none;fillColor=none;align=center;verticalAlign=middle;whiteSpace=wrap;rounded=0;" vertex="1" parent="1">
          <mxGeometry x="340" y="340" width="40" height="20" as="geometry" />
        </mxCell>
        <mxCell id="HRDqVDNPpXFTRO4hQufy-20" style="edgeStyle=none;rounded=0;orthogonalLoop=1;jettySize=auto;html=1;" edge="1" parent="1" source="HRDqVDNPpXFTRO4hQufy-4" target="HRDqVDNPpXFTRO4hQufy-1">
          <mxGeometry relative="1" as="geometry" />
        </mxCell>
        <mxCell id="HRDqVDNPpXFTRO4hQufy-4" value="&lt;font style=&quot;font-size: 19px&quot;&gt;{i3,i4}&lt;/font&gt;" style="text;html=1;strokeColor=none;fillColor=none;align=center;verticalAlign=middle;whiteSpace=wrap;rounded=0;" vertex="1" parent="1">
          <mxGeometry x="480" y="340" width="40" height="20" as="geometry" />
        </mxCell>
        <mxCell id="HRDqVDNPpXFTRO4hQufy-5" value="&lt;font style=&quot;font-size: 19px&quot;&gt;{i3, i5}&lt;/font&gt;" style="ellipse;whiteSpace=wrap;html=1;" vertex="1" parent="1">
          <mxGeometry x="650" y="320" width="80" height="40" as="geometry" />
        </mxCell>
        <mxCell id="HRDqVDNPpXFTRO4hQufy-14" style="edgeStyle=none;rounded=0;orthogonalLoop=1;jettySize=auto;html=1;entryX=0.25;entryY=1;entryDx=0;entryDy=0;" edge="1" parent="1" source="HRDqVDNPpXFTRO4hQufy-6" target="HRDqVDNPpXFTRO4hQufy-2">
          <mxGeometry relative="1" as="geometry" />
        </mxCell>
        <mxCell id="HRDqVDNPpXFTRO4hQufy-16" style="edgeStyle=none;rounded=0;orthogonalLoop=1;jettySize=auto;html=1;entryX=0.5;entryY=1;entryDx=0;entryDy=0;" edge="1" parent="1" source="HRDqVDNPpXFTRO4hQufy-6" target="HRDqVDNPpXFTRO4hQufy-3">
          <mxGeometry relative="1" as="geometry" />
        </mxCell>
        <mxCell id="HRDqVDNPpXFTRO4hQufy-6" value="&lt;font style=&quot;font-size: 19px&quot;&gt;{i1}&lt;/font&gt;" style="text;html=1;strokeColor=none;fillColor=none;align=center;verticalAlign=middle;whiteSpace=wrap;rounded=0;" vertex="1" parent="1">
          <mxGeometry x="110" y="460" width="40" height="20" as="geometry" />
        </mxCell>
        <mxCell id="HRDqVDNPpXFTRO4hQufy-15" style="edgeStyle=none;rounded=0;orthogonalLoop=1;jettySize=auto;html=1;" edge="1" parent="1" source="HRDqVDNPpXFTRO4hQufy-7" target="HRDqVDNPpXFTRO4hQufy-2">
          <mxGeometry relative="1" as="geometry" />
        </mxCell>
        <mxCell id="HRDqVDNPpXFTRO4hQufy-17" style="edgeStyle=none;rounded=0;orthogonalLoop=1;jettySize=auto;html=1;entryX=0.25;entryY=1;entryDx=0;entryDy=0;" edge="1" parent="1" source="HRDqVDNPpXFTRO4hQufy-7" target="HRDqVDNPpXFTRO4hQufy-4">
          <mxGeometry relative="1" as="geometry" />
        </mxCell>
        <mxCell id="HRDqVDNPpXFTRO4hQufy-7" value="&lt;font style=&quot;font-size: 19px&quot;&gt;{i3}&lt;/font&gt;" style="text;html=1;strokeColor=none;fillColor=none;align=center;verticalAlign=middle;whiteSpace=wrap;rounded=0;" vertex="1" parent="1">
          <mxGeometry x="280" y="460" width="40" height="20" as="geometry" />
        </mxCell>
        <mxCell id="HRDqVDNPpXFTRO4hQufy-18" style="edgeStyle=none;rounded=0;orthogonalLoop=1;jettySize=auto;html=1;entryX=0.5;entryY=1;entryDx=0;entryDy=0;" edge="1" parent="1" source="HRDqVDNPpXFTRO4hQufy-8" target="HRDqVDNPpXFTRO4hQufy-4">
          <mxGeometry relative="1" as="geometry" />
        </mxCell>
        <mxCell id="HRDqVDNPpXFTRO4hQufy-8" value="&lt;font style=&quot;font-size: 19px&quot;&gt;{i4}&lt;/font&gt;" style="text;html=1;strokeColor=none;fillColor=none;align=center;verticalAlign=middle;whiteSpace=wrap;rounded=0;" vertex="1" parent="1">
          <mxGeometry x="414" y="460" width="40" height="20" as="geometry" />
        </mxCell>
        <mxCell id="HRDqVDNPpXFTRO4hQufy-19" style="edgeStyle=none;rounded=0;orthogonalLoop=1;jettySize=auto;html=1;entryX=0.5;entryY=1;entryDx=0;entryDy=0;" edge="1" parent="1" source="HRDqVDNPpXFTRO4hQufy-9" target="HRDqVDNPpXFTRO4hQufy-5">
          <mxGeometry relative="1" as="geometry" />
        </mxCell>
        <mxCell id="HRDqVDNPpXFTRO4hQufy-9" value="&lt;font style=&quot;font-size: 19px&quot;&gt;{i5}&lt;/font&gt;" style="text;html=1;strokeColor=none;fillColor=none;align=center;verticalAlign=middle;whiteSpace=wrap;rounded=0;" vertex="1" parent="1">
          <mxGeometry x="560" y="460" width="40" height="20" as="geometry" />
        </mxCell>
        <mxCell id="HRDqVDNPpXFTRO4hQufy-13" style="edgeStyle=none;rounded=0;orthogonalLoop=1;jettySize=auto;html=1;exitX=0.75;exitY=0;exitDx=0;exitDy=0;" edge="1" parent="1" source="HRDqVDNPpXFTRO4hQufy-6" target="HRDqVDNPpXFTRO4hQufy-6">
          <mxGeometry relative="1" as="geometry" />
        </mxCell>
      </root>
    </mxGraphModel>
  </diagram>
</mxfile>
